<svg width="420" height="452" viewBox="0 0 420 452" fill="none" xmlns="http://www.w3.org/2000/svg">
<path d="M44 0.5H108C125.397 0.5 139.5 14.603 139.5 32V402C139.5 419.397 125.397 433.5 108 433.5H44C26.603 433.5 12.5 419.397 12.5 402V32C12.5 14.603 26.603 0.5 44 0.5Z" fill="#082338"/>
<path d="M44 0.5H108C125.397 0.5 139.5 14.603 139.5 32V402C139.5 419.397 125.397 433.5 108 433.5H44C26.603 433.5 12.5 419.397 12.5 402V32C12.5 14.603 26.603 0.5 44 0.5Z" stroke="url(#paint0_linear_12_999)"/>
<g filter="url(#filter0_dd_12_999)">
<path d="M28 56C28 38.3269 42.3269 24 60 24H92C109.673 24 124 38.3269 124 56V70C124 87.6731 109.673 102 92 102H60C42.3269 102 28 87.6731 28 70V56Z" fill="#E7ECF3" fill-opacity="0.7" shape-rendering="crispEdges"/>
<path d="M60 24.5H92C109.397 24.5 123.5 38.603 123.5 56V70C123.5 87.397 109.397 101.5 92 101.5H60C42.603 101.5 28.5 87.397 28.5 70V56L28.5107 55.1865C28.9422 38.1655 42.875 24.5 60 24.5Z" stroke="url(#paint1_linear_12_999)" shape-rendering="crispEdges"/>
</g>
<g filter="url(#filter1_dd_12_999)">
<path d="M28 150C28 132.327 42.3269 118 60 118H92C109.673 118 124 132.327 124 150V164C124 181.673 109.673 196 92 196H60C42.3269 196 28 181.673 28 164V150Z" fill="#E7ECF3" fill-opacity="0.7" shape-rendering="crispEdges"/>
<path d="M60 118.5H92C109.397 118.5 123.5 132.603 123.5 150V164C123.5 181.397 109.397 195.5 92 195.5H60C42.603 195.5 28.5 181.397 28.5 164V150L28.5107 149.187C28.9422 132.166 42.875 118.5 60 118.5Z" stroke="url(#paint2_linear_12_999)" shape-rendering="crispEdges"/>
</g>
<g filter="url(#filter2_dd_12_999)">
<path d="M28 244C28 226.327 42.3269 212 60 212H92C109.673 212 124 226.327 124 244V258C124 275.673 109.673 290 92 290H60C42.3269 290 28 275.673 28 258V244Z" fill="#E7ECF3" fill-opacity="0.7" shape-rendering="crispEdges"/>
<path d="M60 212.5H92C109.397 212.5 123.5 226.603 123.5 244V258C123.5 275.397 109.397 289.5 92 289.5H60C42.603 289.5 28.5 275.397 28.5 258V244L28.5107 243.187C28.9422 226.166 42.875 212.5 60 212.5Z" stroke="url(#paint3_linear_12_999)" shape-rendering="crispEdges"/>
</g>
<g filter="url(#filter3_dd_12_999)">
<path d="M28 338C28 320.327 42.3269 306 60 306H92C109.673 306 124 320.327 124 338V378C124 395.673 109.673 410 92 410H60C42.3269 410 28 395.673 28 378V338Z" fill="#E7ECF3" fill-opacity="0.7" shape-rendering="crispEdges"/>
<path d="M60 306.5H92C109.397 306.5 123.5 320.603 123.5 338V378C123.5 395.397 109.397 409.5 92 409.5H60C42.603 409.5 28.5 395.397 28.5 378V338C28.5 320.603 42.603 306.5 60 306.5Z" stroke="url(#paint4_linear_12_999)" shape-rendering="crispEdges"/>
</g>
<path d="M178 0.5H242C259.397 0.5 273.5 14.603 273.5 32V402C273.5 419.397 259.397 433.5 242 433.5H178C160.603 433.5 146.5 419.397 146.5 402V32C146.5 14.603 160.603 0.5 178 0.5Z" fill="#0C3B5E"/>
<path d="M178 0.5H242C259.397 0.5 273.5 14.603 273.5 32V402C273.5 419.397 259.397 433.5 242 433.5H178C160.603 433.5 146.5 419.397 146.5 402V32C146.5 14.603 160.603 0.5 178 0.5Z" stroke="url(#paint5_linear_12_999)"/>
<g filter="url(#filter4_dd_12_999)">
<path d="M162 56C162 38.3269 176.327 24 194 24H226C243.673 24 258 38.3269 258 56V76.5C258 94.1731 243.673 108.5 226 108.5H194C176.327 108.5 162 94.1731 162 76.5V56Z" fill="#E7ECF3" fill-opacity="0.7" shape-rendering="crispEdges"/>
<path d="M194 24.5H226C243.397 24.5 257.5 38.603 257.5 56V76.5C257.5 93.897 243.397 108 226 108H194C176.603 108 162.5 93.897 162.5 76.5V56C162.5 38.603 176.603 24.5 194 24.5Z" stroke="url(#paint6_linear_12_999)" shape-rendering="crispEdges"/>
</g>
<g filter="url(#filter5_dd_12_999)">
<path d="M162 237.5C162 219.827 176.327 205.5 194 205.5H226C243.673 205.5 258 219.827 258 237.5V258C258 275.673 243.673 290 226 290H194C176.327 290 162 275.673 162 258V237.5Z" fill="#E7ECF3" fill-opacity="0.7" shape-rendering="crispEdges"/>
<path d="M194 206H226C243.397 206 257.5 220.103 257.5 237.5V258C257.5 275.397 243.397 289.5 226 289.5H194C176.603 289.5 162.5 275.397 162.5 258V237.5C162.5 220.103 176.603 206 194 206Z" stroke="url(#paint7_linear_12_999)" shape-rendering="crispEdges"/>
</g>
<path d="M312 0.5H376C393.397 0.5 407.5 14.603 407.5 32V402C407.5 419.397 393.397 433.5 376 433.5H312C294.603 433.5 280.5 419.397 280.5 402V32C280.5 14.603 294.603 0.5 312 0.5Z" fill="#0F548C"/>
<path d="M312 0.5H376C393.397 0.5 407.5 14.603 407.5 32V402C407.5 419.397 393.397 433.5 376 433.5H312C294.603 433.5 280.5 419.397 280.5 402V32C280.5 14.603 294.603 0.5 312 0.5Z" stroke="url(#paint8_linear_12_999)"/>
<g filter="url(#filter6_dd_12_999)">
<path d="M296 56C296 38.3269 310.327 24 328 24H360C377.673 24 392 38.3269 392 56V76.5C392 94.1731 377.673 108.5 360 108.5H328C310.327 108.5 296 94.1731 296 76.5V56Z" fill="#E7ECF3" fill-opacity="0.7" shape-rendering="crispEdges"/>
<path d="M328 24.5H360C377.397 24.5 391.5 38.603 391.5 56V76.5C391.5 93.897 377.397 108 360 108H328C310.603 108 296.5 93.897 296.5 76.5V56C296.5 38.603 310.603 24.5 328 24.5Z" stroke="url(#paint9_linear_12_999)" shape-rendering="crispEdges"/>
</g>
<g filter="url(#filter7_dd_12_999)">
<path d="M296 237.5C296 219.827 310.327 205.5 328 205.5H360C377.673 205.5 392 219.827 392 237.5V258C392 275.673 377.673 290 360 290H328C310.327 290 296 275.673 296 258V237.5Z" fill="#E7ECF3" fill-opacity="0.7" shape-rendering="crispEdges"/>
<path d="M328 206H360C377.397 206 391.5 220.103 391.5 237.5V258C391.5 275.397 377.397 289.5 360 289.5H328C310.603 289.5 296.5 275.397 296.5 258V237.5C296.5 220.103 310.603 206 328 206Z" stroke="url(#paint10_linear_12_999)" shape-rendering="crispEdges"/>
</g>
<defs>
<filter id="filter0_dd_12_999" x="0" y="10" width="152" height="134" filterUnits="userSpaceOnUse" color-interpolation-filters="sRGB">
<feFlood flood-opacity="0" result="BackgroundImageFix"/>
<feColorMatrix in="SourceAlpha" type="matrix" values="0 0 0 0 0 0 0 0 0 0 0 0 0 0 0 0 0 0 127 0" result="hardAlpha"/>
<feOffset/>
<feGaussianBlur stdDeviation="4"/>
<feComposite in2="hardAlpha" operator="out"/>
<feColorMatrix type="matrix" values="0 0 0 0 0 0 0 0 0 0 0 0 0 0 0 0 0 0 0.2 0"/>
<feBlend mode="normal" in2="BackgroundImageFix" result="effect1_dropShadow_12_999"/>
<feColorMatrix in="SourceAlpha" type="matrix" values="0 0 0 0 0 0 0 0 0 0 0 0 0 0 0 0 0 0 127 0" result="hardAlpha"/>
<feOffset dy="14"/>
<feGaussianBlur stdDeviation="14"/>
<feComposite in2="hardAlpha" operator="out"/>
<feColorMatrix type="matrix" values="0 0 0 0 0 0 0 0 0 0 0 0 0 0 0 0 0 0 0.24 0"/>
<feBlend mode="normal" in2="effect1_dropShadow_12_999" result="effect2_dropShadow_12_999"/>
<feBlend mode="normal" in="SourceGraphic" in2="effect2_dropShadow_12_999" result="shape"/>
</filter>
<filter id="filter1_dd_12_999" x="0" y="104" width="152" height="134" filterUnits="userSpaceOnUse" color-interpolation-filters="sRGB">
<feFlood flood-opacity="0" result="BackgroundImageFix"/>
<feColorMatrix in="SourceAlpha" type="matrix" values="0 0 0 0 0 0 0 0 0 0 0 0 0 0 0 0 0 0 127 0" result="hardAlpha"/>
<feOffset/>
<feGaussianBlur stdDeviation="4"/>
<feComposite in2="hardAlpha" operator="out"/>
<feColorMatrix type="matrix" values="0 0 0 0 0 0 0 0 0 0 0 0 0 0 0 0 0 0 0.2 0"/>
<feBlend mode="normal" in2="BackgroundImageFix" result="effect1_dropShadow_12_999"/>
<feColorMatrix in="SourceAlpha" type="matrix" values="0 0 0 0 0 0 0 0 0 0 0 0 0 0 0 0 0 0 127 0" result="hardAlpha"/>
<feOffset dy="14"/>
<feGaussianBlur stdDeviation="14"/>
<feComposite in2="hardAlpha" operator="out"/>
<feColorMatrix type="matrix" values="0 0 0 0 0 0 0 0 0 0 0 0 0 0 0 0 0 0 0.24 0"/>
<feBlend mode="normal" in2="effect1_dropShadow_12_999" result="effect2_dropShadow_12_999"/>
<feBlend mode="normal" in="SourceGraphic" in2="effect2_dropShadow_12_999" result="shape"/>
</filter>
<filter id="filter2_dd_12_999" x="0" y="198" width="152" height="134" filterUnits="userSpaceOnUse" color-interpolation-filters="sRGB">
<feFlood flood-opacity="0" result="BackgroundImageFix"/>
<feColorMatrix in="SourceAlpha" type="matrix" values="0 0 0 0 0 0 0 0 0 0 0 0 0 0 0 0 0 0 127 0" result="hardAlpha"/>
<feOffset/>
<feGaussianBlur stdDeviation="4"/>
<feComposite in2="hardAlpha" operator="out"/>
<feColorMatrix type="matrix" values="0 0 0 0 0 0 0 0 0 0 0 0 0 0 0 0 0 0 0.2 0"/>
<feBlend mode="normal" in2="BackgroundImageFix" result="effect1_dropShadow_12_999"/>
<feColorMatrix in="SourceAlpha" type="matrix" values="0 0 0 0 0 0 0 0 0 0 0 0 0 0 0 0 0 0 127 0" result="hardAlpha"/>
<feOffset dy="14"/>
<feGaussianBlur stdDeviation="14"/>
<feComposite in2="hardAlpha" operator="out"/>
<feColorMatrix type="matrix" values="0 0 0 0 0 0 0 0 0 0 0 0 0 0 0 0 0 0 0.24 0"/>
<feBlend mode="normal" in2="effect1_dropShadow_12_999" result="effect2_dropShadow_12_999"/>
<feBlend mode="normal" in="SourceGraphic" in2="effect2_dropShadow_12_999" result="shape"/>
</filter>
<filter id="filter3_dd_12_999" x="0" y="292" width="152" height="160" filterUnits="userSpaceOnUse" color-interpolation-filters="sRGB">
<feFlood flood-opacity="0" result="BackgroundImageFix"/>
<feColorMatrix in="SourceAlpha" type="matrix" values="0 0 0 0 0 0 0 0 0 0 0 0 0 0 0 0 0 0 127 0" result="hardAlpha"/>
<feOffset/>
<feGaussianBlur stdDeviation="4"/>
<feComposite in2="hardAlpha" operator="out"/>
<feColorMatrix type="matrix" values="0 0 0 0 0 0 0 0 0 0 0 0 0 0 0 0 0 0 0.2 0"/>
<feBlend mode="normal" in2="BackgroundImageFix" result="effect1_dropShadow_12_999"/>
<feColorMatrix in="SourceAlpha" type="matrix" values="0 0 0 0 0 0 0 0 0 0 0 0 0 0 0 0 0 0 127 0" result="hardAlpha"/>
<feOffset dy="14"/>
<feGaussianBlur stdDeviation="14"/>
<feComposite in2="hardAlpha" operator="out"/>
<feColorMatrix type="matrix" values="0 0 0 0 0 0 0 0 0 0 0 0 0 0 0 0 0 0 0.24 0"/>
<feBlend mode="normal" in2="effect1_dropShadow_12_999" result="effect2_dropShadow_12_999"/>
<feBlend mode="normal" in="SourceGraphic" in2="effect2_dropShadow_12_999" result="shape"/>
</filter>
<filter id="filter4_dd_12_999" x="134" y="10" width="152" height="140.5" filterUnits="userSpaceOnUse" color-interpolation-filters="sRGB">
<feFlood flood-opacity="0" result="BackgroundImageFix"/>
<feColorMatrix in="SourceAlpha" type="matrix" values="0 0 0 0 0 0 0 0 0 0 0 0 0 0 0 0 0 0 127 0" result="hardAlpha"/>
<feOffset/>
<feGaussianBlur stdDeviation="4"/>
<feComposite in2="hardAlpha" operator="out"/>
<feColorMatrix type="matrix" values="0 0 0 0 0 0 0 0 0 0 0 0 0 0 0 0 0 0 0.2 0"/>
<feBlend mode="normal" in2="BackgroundImageFix" result="effect1_dropShadow_12_999"/>
<feColorMatrix in="SourceAlpha" type="matrix" values="0 0 0 0 0 0 0 0 0 0 0 0 0 0 0 0 0 0 127 0" result="hardAlpha"/>
<feOffset dy="14"/>
<feGaussianBlur stdDeviation="14"/>
<feComposite in2="hardAlpha" operator="out"/>
<feColorMatrix type="matrix" values="0 0 0 0 0 0 0 0 0 0 0 0 0 0 0 0 0 0 0.24 0"/>
<feBlend mode="normal" in2="effect1_dropShadow_12_999" result="effect2_dropShadow_12_999"/>
<feBlend mode="normal" in="SourceGraphic" in2="effect2_dropShadow_12_999" result="shape"/>
</filter>
<filter id="filter5_dd_12_999" x="134" y="191.5" width="152" height="140.5" filterUnits="userSpaceOnUse" color-interpolation-filters="sRGB">
<feFlood flood-opacity="0" result="BackgroundImageFix"/>
<feColorMatrix in="SourceAlpha" type="matrix" values="0 0 0 0 0 0 0 0 0 0 0 0 0 0 0 0 0 0 127 0" result="hardAlpha"/>
<feOffset/>
<feGaussianBlur stdDeviation="4"/>
<feComposite in2="hardAlpha" operator="out"/>
<feColorMatrix type="matrix" values="0 0 0 0 0 0 0 0 0 0 0 0 0 0 0 0 0 0 0.24 0"/>
<feBlend mode="normal" in2="BackgroundImageFix" result="effect1_dropShadow_12_999"/>
<feColorMatrix in="SourceAlpha" type="matrix" values="0 0 0 0 0 0 0 0 0 0 0 0 0 0 0 0 0 0 127 0" result="hardAlpha"/>
<feOffset dy="14"/>
<feGaussianBlur stdDeviation="14"/>
<feComposite in2="hardAlpha" operator="out"/>
<feColorMatrix type="matrix" values="0 0 0 0 0 0 0 0 0 0 0 0 0 0 0 0 0 0 0.24 0"/>
<feBlend mode="normal" in2="effect1_dropShadow_12_999" result="effect2_dropShadow_12_999"/>
<feBlend mode="normal" in="SourceGraphic" in2="effect2_dropShadow_12_999" result="shape"/>
</filter>
<filter id="filter6_dd_12_999" x="268" y="10" width="152" height="140.5" filterUnits="userSpaceOnUse" color-interpolation-filters="sRGB">
<feFlood flood-opacity="0" result="BackgroundImageFix"/>
<feColorMatrix in="SourceAlpha" type="matrix" values="0 0 0 0 0 0 0 0 0 0 0 0 0 0 0 0 0 0 127 0" result="hardAlpha"/>
<feOffset/>
<feGaussianBlur stdDeviation="4"/>
<feComposite in2="hardAlpha" operator="out"/>
<feColorMatrix type="matrix" values="0 0 0 0 0 0 0 0 0 0 0 0 0 0 0 0 0 0 0.2 0"/>
<feBlend mode="normal" in2="BackgroundImageFix" result="effect1_dropShadow_12_999"/>
<feColorMatrix in="SourceAlpha" type="matrix" values="0 0 0 0 0 0 0 0 0 0 0 0 0 0 0 0 0 0 127 0" result="hardAlpha"/>
<feOffset dy="14"/>
<feGaussianBlur stdDeviation="14"/>
<feComposite in2="hardAlpha" operator="out"/>
<feColorMatrix type="matrix" values="0 0 0 0 0 0 0 0 0 0 0 0 0 0 0 0 0 0 0.24 0"/>
<feBlend mode="normal" in2="effect1_dropShadow_12_999" result="effect2_dropShadow_12_999"/>
<feBlend mode="normal" in="SourceGraphic" in2="effect2_dropShadow_12_999" result="shape"/>
</filter>
<filter id="filter7_dd_12_999" x="268" y="191.5" width="152" height="140.5" filterUnits="userSpaceOnUse" color-interpolation-filters="sRGB">
<feFlood flood-opacity="0" result="BackgroundImageFix"/>
<feColorMatrix in="SourceAlpha" type="matrix" values="0 0 0 0 0 0 0 0 0 0 0 0 0 0 0 0 0 0 127 0" result="hardAlpha"/>
<feOffset/>
<feGaussianBlur stdDeviation="4"/>
<feComposite in2="hardAlpha" operator="out"/>
<feColorMatrix type="matrix" values="0 0 0 0 0 0 0 0 0 0 0 0 0 0 0 0 0 0 0.2 0"/>
<feBlend mode="normal" in2="BackgroundImageFix" result="effect1_dropShadow_12_999"/>
<feColorMatrix in="SourceAlpha" type="matrix" values="0 0 0 0 0 0 0 0 0 0 0 0 0 0 0 0 0 0 127 0" result="hardAlpha"/>
<feOffset dy="14"/>
<feGaussianBlur stdDeviation="14"/>
<feComposite in2="hardAlpha" operator="out"/>
<feColorMatrix type="matrix" values="0 0 0 0 0 0 0 0 0 0 0 0 0 0 0 0 0 0 0.24 0"/>
<feBlend mode="normal" in2="effect1_dropShadow_12_999" result="effect2_dropShadow_12_999"/>
<feBlend mode="normal" in="SourceGraphic" in2="effect2_dropShadow_12_999" result="shape"/>
</filter>
<linearGradient id="paint0_linear_12_999" x1="24.0995" y1="-1.17218e-06" x2="220.468" y2="46.9661" gradientUnits="userSpaceOnUse">
<stop stop-color="white" stop-opacity="0.2"/>
<stop offset="0.5" stop-color="#CFE4FA" stop-opacity="0.2"/>
<stop offset="1" stop-color="white" stop-opacity="0.2"/>
</linearGradient>
<linearGradient id="paint1_linear_12_999" x1="37.0746" y1="24" x2="115.074" y2="101.851" gradientUnits="userSpaceOnUse">
<stop stop-color="white" stop-opacity="0.2"/>
<stop offset="0.5" stop-color="#CFE4FA" stop-opacity="0.2"/>
<stop offset="1" stop-color="white" stop-opacity="0.2"/>
</linearGradient>
<linearGradient id="paint2_linear_12_999" x1="37.0746" y1="118" x2="115.074" y2="195.851" gradientUnits="userSpaceOnUse">
<stop stop-color="white" stop-opacity="0.2"/>
<stop offset="0.5" stop-color="#CFE4FA" stop-opacity="0.2"/>
<stop offset="1" stop-color="white" stop-opacity="0.2"/>
</linearGradient>
<linearGradient id="paint3_linear_12_999" x1="37.0746" y1="212" x2="115.074" y2="289.851" gradientUnits="userSpaceOnUse">
<stop stop-color="white" stop-opacity="0.2"/>
<stop offset="0.5" stop-color="#CFE4FA" stop-opacity="0.2"/>
<stop offset="1" stop-color="white" stop-opacity="0.2"/>
</linearGradient>
<linearGradient id="paint4_linear_12_999" x1="37.0746" y1="306" x2="136.861" y2="380.697" gradientUnits="userSpaceOnUse">
<stop stop-color="white" stop-opacity="0.2"/>
<stop offset="0.5" stop-color="#CFE4FA" stop-opacity="0.2"/>
<stop offset="1" stop-color="white" stop-opacity="0.2"/>
</linearGradient>
<linearGradient id="paint5_linear_12_999" x1="158.1" y1="-1.17218e-06" x2="354.468" y2="46.9661" gradientUnits="userSpaceOnUse">
<stop stop-color="white" stop-opacity="0.2"/>
<stop offset="0.5" stop-color="#CFE4FA" stop-opacity="0.2"/>
<stop offset="1" stop-color="white" stop-opacity="0.2"/>
</linearGradient>
<linearGradient id="paint6_linear_12_999" x1="171.075" y1="24" x2="255.292" y2="101.59" gradientUnits="userSpaceOnUse">
<stop stop-color="white" stop-opacity="0.2"/>
<stop offset="0.5" stop-color="#CFE4FA" stop-opacity="0.2"/>
<stop offset="1" stop-color="white" stop-opacity="0.2"/>
</linearGradient>
<linearGradient id="paint7_linear_12_999" x1="171.075" y1="205.5" x2="255.292" y2="283.09" gradientUnits="userSpaceOnUse">
<stop stop-color="white" stop-opacity="0.2"/>
<stop offset="0.5" stop-color="#CFE4FA" stop-opacity="0.2"/>
<stop offset="1" stop-color="white" stop-opacity="0.2"/>
</linearGradient>
<linearGradient id="paint8_linear_12_999" x1="292.1" y1="-1.17218e-06" x2="488.468" y2="46.9661" gradientUnits="userSpaceOnUse">
<stop stop-color="white" stop-opacity="0.2"/>
<stop offset="0.5" stop-color="#CFE4FA" stop-opacity="0.2"/>
<stop offset="1" stop-color="white" stop-opacity="0.2"/>
</linearGradient>
<linearGradient id="paint9_linear_12_999" x1="305.075" y1="24" x2="389.292" y2="101.59" gradientUnits="userSpaceOnUse">
<stop stop-color="white" stop-opacity="0.2"/>
<stop offset="0.5" stop-color="#CFE4FA" stop-opacity="0.2"/>
<stop offset="1" stop-color="white" stop-opacity="0.2"/>
</linearGradient>
<linearGradient id="paint10_linear_12_999" x1="305.075" y1="205.5" x2="389.292" y2="283.09" gradientUnits="userSpaceOnUse">
<stop stop-color="white" stop-opacity="0.2"/>
<stop offset="0.5" stop-color="#CFE4FA" stop-opacity="0.2"/>
<stop offset="1" stop-color="white" stop-opacity="0.2"/>
</linearGradient>
</defs>
</svg>
