<svg width="512" height="512" viewBox="0 0 512 512" fill="none" xmlns="http://www.w3.org/2000/svg">
<path d="M90 39.5H154C171.397 39.5 185.5 53.603 185.5 71V441C185.5 458.397 171.397 472.5 154 472.5H90C72.603 472.5 58.5 458.397 58.5 441V71C58.5 53.603 72.603 39.5 90 39.5Z" fill="#082338"/>
<path d="M90 39.5H154C171.397 39.5 185.5 53.603 185.5 71V441C185.5 458.397 171.397 472.5 154 472.5H90C72.603 472.5 58.5 458.397 58.5 441V71C58.5 53.603 72.603 39.5 90 39.5Z" stroke="url(#paint0_linear_12_1000)"/>
<g filter="url(#filter0_dd_12_1000)">
<path d="M74 95C74 77.3269 88.3269 63 106 63H138C155.673 63 170 77.3269 170 95V109C170 126.673 155.673 141 138 141H106C88.3269 141 74 126.673 74 109V95Z" fill="#E7ECF3" fill-opacity="0.7" shape-rendering="crispEdges"/>
<path d="M106 63.5H138C155.397 63.5 169.5 77.603 169.5 95V109C169.5 126.397 155.397 140.5 138 140.5H106C88.603 140.5 74.5 126.397 74.5 109V95L74.5107 94.1865C74.9422 77.1655 88.875 63.5 106 63.5Z" stroke="url(#paint1_linear_12_1000)" shape-rendering="crispEdges"/>
</g>
<g filter="url(#filter1_dd_12_1000)">
<path d="M74 189C74 171.327 88.3269 157 106 157H138C155.673 157 170 171.327 170 189V203C170 220.673 155.673 235 138 235H106C88.3269 235 74 220.673 74 203V189Z" fill="#E7ECF3" fill-opacity="0.7" shape-rendering="crispEdges"/>
<path d="M106 157.5H138C155.397 157.5 169.5 171.603 169.5 189V203C169.5 220.397 155.397 234.5 138 234.5H106C88.603 234.5 74.5 220.397 74.5 203V189L74.5107 188.187C74.9422 171.166 88.875 157.5 106 157.5Z" stroke="url(#paint2_linear_12_1000)" shape-rendering="crispEdges"/>
</g>
<g filter="url(#filter2_dd_12_1000)">
<path d="M74 283C74 265.327 88.3269 251 106 251H138C155.673 251 170 265.327 170 283V297C170 314.673 155.673 329 138 329H106C88.3269 329 74 314.673 74 297V283Z" fill="#E7ECF3" fill-opacity="0.7" shape-rendering="crispEdges"/>
<path d="M106 251.5H138C155.397 251.5 169.5 265.603 169.5 283V297C169.5 314.397 155.397 328.5 138 328.5H106C88.603 328.5 74.5 314.397 74.5 297V283L74.5107 282.187C74.9422 265.166 88.875 251.5 106 251.5Z" stroke="url(#paint3_linear_12_1000)" shape-rendering="crispEdges"/>
</g>
<g filter="url(#filter3_dd_12_1000)">
<path d="M74 377C74 359.327 88.3269 345 106 345H138C155.673 345 170 359.327 170 377V417C170 434.673 155.673 449 138 449H106C88.3269 449 74 434.673 74 417V377Z" fill="#E7ECF3" fill-opacity="0.7" shape-rendering="crispEdges"/>
<path d="M106 345.5H138C155.397 345.5 169.5 359.603 169.5 377V417C169.5 434.397 155.397 448.5 138 448.5H106C88.603 448.5 74.5 434.397 74.5 417V377C74.5 359.603 88.603 345.5 106 345.5Z" stroke="url(#paint4_linear_12_1000)" shape-rendering="crispEdges"/>
</g>
<path d="M224 39.5H288C305.397 39.5 319.5 53.603 319.5 71V441C319.5 458.397 305.397 472.5 288 472.5H224C206.603 472.5 192.5 458.397 192.5 441V71C192.5 53.603 206.603 39.5 224 39.5Z" fill="#0C3B5E"/>
<path d="M224 39.5H288C305.397 39.5 319.5 53.603 319.5 71V441C319.5 458.397 305.397 472.5 288 472.5H224C206.603 472.5 192.5 458.397 192.5 441V71C192.5 53.603 206.603 39.5 224 39.5Z" stroke="url(#paint5_linear_12_1000)"/>
<g filter="url(#filter4_dd_12_1000)">
<path d="M208 95C208 77.3269 222.327 63 240 63H272C289.673 63 304 77.3269 304 95V115.5C304 133.173 289.673 147.5 272 147.5H240C222.327 147.5 208 133.173 208 115.5V95Z" fill="#E7ECF3" fill-opacity="0.7" shape-rendering="crispEdges"/>
<path d="M240 63.5H272C289.397 63.5 303.5 77.603 303.5 95V115.5C303.5 132.897 289.397 147 272 147H240C222.603 147 208.5 132.897 208.5 115.5V95C208.5 77.603 222.603 63.5 240 63.5Z" stroke="url(#paint6_linear_12_1000)" shape-rendering="crispEdges"/>
</g>
<g filter="url(#filter5_dd_12_1000)">
<path d="M208 276.5C208 258.827 222.327 244.5 240 244.5H272C289.673 244.5 304 258.827 304 276.5V297C304 314.673 289.673 329 272 329H240C222.327 329 208 314.673 208 297V276.5Z" fill="#E7ECF3" fill-opacity="0.7" shape-rendering="crispEdges"/>
<path d="M240 245H272C289.397 245 303.5 259.103 303.5 276.5V297C303.5 314.397 289.397 328.5 272 328.5H240C222.603 328.5 208.5 314.397 208.5 297V276.5C208.5 259.103 222.603 245 240 245Z" stroke="url(#paint7_linear_12_1000)" shape-rendering="crispEdges"/>
</g>
<path d="M358 39.5H422C439.397 39.5 453.5 53.603 453.5 71V441C453.5 458.397 439.397 472.5 422 472.5H358C340.603 472.5 326.5 458.397 326.5 441V71C326.5 53.603 340.603 39.5 358 39.5Z" fill="#0F548C"/>
<path d="M358 39.5H422C439.397 39.5 453.5 53.603 453.5 71V441C453.5 458.397 439.397 472.5 422 472.5H358C340.603 472.5 326.5 458.397 326.5 441V71C326.5 53.603 340.603 39.5 358 39.5Z" stroke="url(#paint8_linear_12_1000)"/>
<g filter="url(#filter6_dd_12_1000)">
<path d="M342 95C342 77.3269 356.327 63 374 63H406C423.673 63 438 77.3269 438 95V115.5C438 133.173 423.673 147.5 406 147.5H374C356.327 147.5 342 133.173 342 115.5V95Z" fill="#E7ECF3" fill-opacity="0.7" shape-rendering="crispEdges"/>
<path d="M374 63.5H406C423.397 63.5 437.5 77.603 437.5 95V115.5C437.5 132.897 423.397 147 406 147H374C356.603 147 342.5 132.897 342.5 115.5V95C342.5 77.603 356.603 63.5 374 63.5Z" stroke="url(#paint9_linear_12_1000)" shape-rendering="crispEdges"/>
</g>
<g filter="url(#filter7_dd_12_1000)">
<path d="M342 276.5C342 258.827 356.327 244.5 374 244.5H406C423.673 244.5 438 258.827 438 276.5V297C438 314.673 423.673 329 406 329H374C356.327 329 342 314.673 342 297V276.5Z" fill="#E7ECF3" fill-opacity="0.7" shape-rendering="crispEdges"/>
<path d="M374 245H406C423.397 245 437.5 259.103 437.5 276.5V297C437.5 314.397 423.397 328.5 406 328.5H374C356.603 328.5 342.5 314.397 342.5 297V276.5C342.5 259.103 356.603 245 374 245Z" stroke="url(#paint10_linear_12_1000)" shape-rendering="crispEdges"/>
</g>
<defs>
<filter id="filter0_dd_12_1000" x="46" y="49" width="152" height="134" filterUnits="userSpaceOnUse" color-interpolation-filters="sRGB">
<feFlood flood-opacity="0" result="BackgroundImageFix"/>
<feColorMatrix in="SourceAlpha" type="matrix" values="0 0 0 0 0 0 0 0 0 0 0 0 0 0 0 0 0 0 127 0" result="hardAlpha"/>
<feOffset/>
<feGaussianBlur stdDeviation="4"/>
<feComposite in2="hardAlpha" operator="out"/>
<feColorMatrix type="matrix" values="0 0 0 0 0 0 0 0 0 0 0 0 0 0 0 0 0 0 0.2 0"/>
<feBlend mode="normal" in2="BackgroundImageFix" result="effect1_dropShadow_12_1000"/>
<feColorMatrix in="SourceAlpha" type="matrix" values="0 0 0 0 0 0 0 0 0 0 0 0 0 0 0 0 0 0 127 0" result="hardAlpha"/>
<feOffset dy="14"/>
<feGaussianBlur stdDeviation="14"/>
<feComposite in2="hardAlpha" operator="out"/>
<feColorMatrix type="matrix" values="0 0 0 0 0 0 0 0 0 0 0 0 0 0 0 0 0 0 0.24 0"/>
<feBlend mode="normal" in2="effect1_dropShadow_12_1000" result="effect2_dropShadow_12_1000"/>
<feBlend mode="normal" in="SourceGraphic" in2="effect2_dropShadow_12_1000" result="shape"/>
</filter>
<filter id="filter1_dd_12_1000" x="46" y="143" width="152" height="134" filterUnits="userSpaceOnUse" color-interpolation-filters="sRGB">
<feFlood flood-opacity="0" result="BackgroundImageFix"/>
<feColorMatrix in="SourceAlpha" type="matrix" values="0 0 0 0 0 0 0 0 0 0 0 0 0 0 0 0 0 0 127 0" result="hardAlpha"/>
<feOffset/>
<feGaussianBlur stdDeviation="4"/>
<feComposite in2="hardAlpha" operator="out"/>
<feColorMatrix type="matrix" values="0 0 0 0 0 0 0 0 0 0 0 0 0 0 0 0 0 0 0.2 0"/>
<feBlend mode="normal" in2="BackgroundImageFix" result="effect1_dropShadow_12_1000"/>
<feColorMatrix in="SourceAlpha" type="matrix" values="0 0 0 0 0 0 0 0 0 0 0 0 0 0 0 0 0 0 127 0" result="hardAlpha"/>
<feOffset dy="14"/>
<feGaussianBlur stdDeviation="14"/>
<feComposite in2="hardAlpha" operator="out"/>
<feColorMatrix type="matrix" values="0 0 0 0 0 0 0 0 0 0 0 0 0 0 0 0 0 0 0.24 0"/>
<feBlend mode="normal" in2="effect1_dropShadow_12_1000" result="effect2_dropShadow_12_1000"/>
<feBlend mode="normal" in="SourceGraphic" in2="effect2_dropShadow_12_1000" result="shape"/>
</filter>
<filter id="filter2_dd_12_1000" x="46" y="237" width="152" height="134" filterUnits="userSpaceOnUse" color-interpolation-filters="sRGB">
<feFlood flood-opacity="0" result="BackgroundImageFix"/>
<feColorMatrix in="SourceAlpha" type="matrix" values="0 0 0 0 0 0 0 0 0 0 0 0 0 0 0 0 0 0 127 0" result="hardAlpha"/>
<feOffset/>
<feGaussianBlur stdDeviation="4"/>
<feComposite in2="hardAlpha" operator="out"/>
<feColorMatrix type="matrix" values="0 0 0 0 0 0 0 0 0 0 0 0 0 0 0 0 0 0 0.2 0"/>
<feBlend mode="normal" in2="BackgroundImageFix" result="effect1_dropShadow_12_1000"/>
<feColorMatrix in="SourceAlpha" type="matrix" values="0 0 0 0 0 0 0 0 0 0 0 0 0 0 0 0 0 0 127 0" result="hardAlpha"/>
<feOffset dy="14"/>
<feGaussianBlur stdDeviation="14"/>
<feComposite in2="hardAlpha" operator="out"/>
<feColorMatrix type="matrix" values="0 0 0 0 0 0 0 0 0 0 0 0 0 0 0 0 0 0 0.24 0"/>
<feBlend mode="normal" in2="effect1_dropShadow_12_1000" result="effect2_dropShadow_12_1000"/>
<feBlend mode="normal" in="SourceGraphic" in2="effect2_dropShadow_12_1000" result="shape"/>
</filter>
<filter id="filter3_dd_12_1000" x="46" y="331" width="152" height="160" filterUnits="userSpaceOnUse" color-interpolation-filters="sRGB">
<feFlood flood-opacity="0" result="BackgroundImageFix"/>
<feColorMatrix in="SourceAlpha" type="matrix" values="0 0 0 0 0 0 0 0 0 0 0 0 0 0 0 0 0 0 127 0" result="hardAlpha"/>
<feOffset/>
<feGaussianBlur stdDeviation="4"/>
<feComposite in2="hardAlpha" operator="out"/>
<feColorMatrix type="matrix" values="0 0 0 0 0 0 0 0 0 0 0 0 0 0 0 0 0 0 0.2 0"/>
<feBlend mode="normal" in2="BackgroundImageFix" result="effect1_dropShadow_12_1000"/>
<feColorMatrix in="SourceAlpha" type="matrix" values="0 0 0 0 0 0 0 0 0 0 0 0 0 0 0 0 0 0 127 0" result="hardAlpha"/>
<feOffset dy="14"/>
<feGaussianBlur stdDeviation="14"/>
<feComposite in2="hardAlpha" operator="out"/>
<feColorMatrix type="matrix" values="0 0 0 0 0 0 0 0 0 0 0 0 0 0 0 0 0 0 0.24 0"/>
<feBlend mode="normal" in2="effect1_dropShadow_12_1000" result="effect2_dropShadow_12_1000"/>
<feBlend mode="normal" in="SourceGraphic" in2="effect2_dropShadow_12_1000" result="shape"/>
</filter>
<filter id="filter4_dd_12_1000" x="180" y="49" width="152" height="140.5" filterUnits="userSpaceOnUse" color-interpolation-filters="sRGB">
<feFlood flood-opacity="0" result="BackgroundImageFix"/>
<feColorMatrix in="SourceAlpha" type="matrix" values="0 0 0 0 0 0 0 0 0 0 0 0 0 0 0 0 0 0 127 0" result="hardAlpha"/>
<feOffset/>
<feGaussianBlur stdDeviation="4"/>
<feComposite in2="hardAlpha" operator="out"/>
<feColorMatrix type="matrix" values="0 0 0 0 0 0 0 0 0 0 0 0 0 0 0 0 0 0 0.2 0"/>
<feBlend mode="normal" in2="BackgroundImageFix" result="effect1_dropShadow_12_1000"/>
<feColorMatrix in="SourceAlpha" type="matrix" values="0 0 0 0 0 0 0 0 0 0 0 0 0 0 0 0 0 0 127 0" result="hardAlpha"/>
<feOffset dy="14"/>
<feGaussianBlur stdDeviation="14"/>
<feComposite in2="hardAlpha" operator="out"/>
<feColorMatrix type="matrix" values="0 0 0 0 0 0 0 0 0 0 0 0 0 0 0 0 0 0 0.24 0"/>
<feBlend mode="normal" in2="effect1_dropShadow_12_1000" result="effect2_dropShadow_12_1000"/>
<feBlend mode="normal" in="SourceGraphic" in2="effect2_dropShadow_12_1000" result="shape"/>
</filter>
<filter id="filter5_dd_12_1000" x="180" y="230.5" width="152" height="140.5" filterUnits="userSpaceOnUse" color-interpolation-filters="sRGB">
<feFlood flood-opacity="0" result="BackgroundImageFix"/>
<feColorMatrix in="SourceAlpha" type="matrix" values="0 0 0 0 0 0 0 0 0 0 0 0 0 0 0 0 0 0 127 0" result="hardAlpha"/>
<feOffset/>
<feGaussianBlur stdDeviation="4"/>
<feComposite in2="hardAlpha" operator="out"/>
<feColorMatrix type="matrix" values="0 0 0 0 0 0 0 0 0 0 0 0 0 0 0 0 0 0 0.2 0"/>
<feBlend mode="normal" in2="BackgroundImageFix" result="effect1_dropShadow_12_1000"/>
<feColorMatrix in="SourceAlpha" type="matrix" values="0 0 0 0 0 0 0 0 0 0 0 0 0 0 0 0 0 0 127 0" result="hardAlpha"/>
<feOffset dy="14"/>
<feGaussianBlur stdDeviation="14"/>
<feComposite in2="hardAlpha" operator="out"/>
<feColorMatrix type="matrix" values="0 0 0 0 0 0 0 0 0 0 0 0 0 0 0 0 0 0 0.24 0"/>
<feBlend mode="normal" in2="effect1_dropShadow_12_1000" result="effect2_dropShadow_12_1000"/>
<feBlend mode="normal" in="SourceGraphic" in2="effect2_dropShadow_12_1000" result="shape"/>
</filter>
<filter id="filter6_dd_12_1000" x="314" y="49" width="152" height="140.5" filterUnits="userSpaceOnUse" color-interpolation-filters="sRGB">
<feFlood flood-opacity="0" result="BackgroundImageFix"/>
<feColorMatrix in="SourceAlpha" type="matrix" values="0 0 0 0 0 0 0 0 0 0 0 0 0 0 0 0 0 0 127 0" result="hardAlpha"/>
<feOffset/>
<feGaussianBlur stdDeviation="4"/>
<feComposite in2="hardAlpha" operator="out"/>
<feColorMatrix type="matrix" values="0 0 0 0 0 0 0 0 0 0 0 0 0 0 0 0 0 0 0.2 0"/>
<feBlend mode="normal" in2="BackgroundImageFix" result="effect1_dropShadow_12_1000"/>
<feColorMatrix in="SourceAlpha" type="matrix" values="0 0 0 0 0 0 0 0 0 0 0 0 0 0 0 0 0 0 127 0" result="hardAlpha"/>
<feOffset dy="14"/>
<feGaussianBlur stdDeviation="14"/>
<feComposite in2="hardAlpha" operator="out"/>
<feColorMatrix type="matrix" values="0 0 0 0 0 0 0 0 0 0 0 0 0 0 0 0 0 0 0.24 0"/>
<feBlend mode="normal" in2="effect1_dropShadow_12_1000" result="effect2_dropShadow_12_1000"/>
<feBlend mode="normal" in="SourceGraphic" in2="effect2_dropShadow_12_1000" result="shape"/>
</filter>
<filter id="filter7_dd_12_1000" x="314" y="230.5" width="152" height="140.5" filterUnits="userSpaceOnUse" color-interpolation-filters="sRGB">
<feFlood flood-opacity="0" result="BackgroundImageFix"/>
<feColorMatrix in="SourceAlpha" type="matrix" values="0 0 0 0 0 0 0 0 0 0 0 0 0 0 0 0 0 0 127 0" result="hardAlpha"/>
<feOffset/>
<feGaussianBlur stdDeviation="4"/>
<feComposite in2="hardAlpha" operator="out"/>
<feColorMatrix type="matrix" values="0 0 0 0 0 0 0 0 0 0 0 0 0 0 0 0 0 0 0.2 0"/>
<feBlend mode="normal" in2="BackgroundImageFix" result="effect1_dropShadow_12_1000"/>
<feColorMatrix in="SourceAlpha" type="matrix" values="0 0 0 0 0 0 0 0 0 0 0 0 0 0 0 0 0 0 127 0" result="hardAlpha"/>
<feOffset dy="14"/>
<feGaussianBlur stdDeviation="14"/>
<feComposite in2="hardAlpha" operator="out"/>
<feColorMatrix type="matrix" values="0 0 0 0 0 0 0 0 0 0 0 0 0 0 0 0 0 0 0.24 0"/>
<feBlend mode="normal" in2="effect1_dropShadow_12_1000" result="effect2_dropShadow_12_1000"/>
<feBlend mode="normal" in="SourceGraphic" in2="effect2_dropShadow_12_1000" result="shape"/>
</filter>
<linearGradient id="paint0_linear_12_1000" x1="70.0995" y1="39" x2="266.468" y2="85.9661" gradientUnits="userSpaceOnUse">
<stop stop-color="white" stop-opacity="0.2"/>
<stop offset="0.5" stop-color="#CFE4FA" stop-opacity="0.2"/>
<stop offset="1" stop-color="white" stop-opacity="0.2"/>
</linearGradient>
<linearGradient id="paint1_linear_12_1000" x1="83.0746" y1="63" x2="161.074" y2="140.851" gradientUnits="userSpaceOnUse">
<stop stop-color="white" stop-opacity="0.2"/>
<stop offset="0.5" stop-color="#CFE4FA" stop-opacity="0.2"/>
<stop offset="1" stop-color="white" stop-opacity="0.2"/>
</linearGradient>
<linearGradient id="paint2_linear_12_1000" x1="83.0746" y1="157" x2="161.074" y2="234.851" gradientUnits="userSpaceOnUse">
<stop stop-color="white" stop-opacity="0.2"/>
<stop offset="0.5" stop-color="#CFE4FA" stop-opacity="0.2"/>
<stop offset="1" stop-color="white" stop-opacity="0.2"/>
</linearGradient>
<linearGradient id="paint3_linear_12_1000" x1="83.0746" y1="251" x2="161.074" y2="328.851" gradientUnits="userSpaceOnUse">
<stop stop-color="white" stop-opacity="0.2"/>
<stop offset="0.5" stop-color="#CFE4FA" stop-opacity="0.2"/>
<stop offset="1" stop-color="white" stop-opacity="0.2"/>
</linearGradient>
<linearGradient id="paint4_linear_12_1000" x1="83.0746" y1="345" x2="182.861" y2="419.697" gradientUnits="userSpaceOnUse">
<stop stop-color="white" stop-opacity="0.2"/>
<stop offset="0.5" stop-color="#CFE4FA" stop-opacity="0.2"/>
<stop offset="1" stop-color="white" stop-opacity="0.2"/>
</linearGradient>
<linearGradient id="paint5_linear_12_1000" x1="204.1" y1="39" x2="400.468" y2="85.9661" gradientUnits="userSpaceOnUse">
<stop stop-color="white" stop-opacity="0.2"/>
<stop offset="0.5" stop-color="#CFE4FA" stop-opacity="0.2"/>
<stop offset="1" stop-color="white" stop-opacity="0.2"/>
</linearGradient>
<linearGradient id="paint6_linear_12_1000" x1="217.075" y1="63" x2="301.292" y2="140.59" gradientUnits="userSpaceOnUse">
<stop stop-color="white" stop-opacity="0.2"/>
<stop offset="0.5" stop-color="#CFE4FA" stop-opacity="0.2"/>
<stop offset="1" stop-color="white" stop-opacity="0.2"/>
</linearGradient>
<linearGradient id="paint7_linear_12_1000" x1="217.075" y1="244.5" x2="301.292" y2="322.09" gradientUnits="userSpaceOnUse">
<stop stop-color="white" stop-opacity="0.2"/>
<stop offset="0.5" stop-color="#CFE4FA" stop-opacity="0.2"/>
<stop offset="1" stop-color="white" stop-opacity="0.2"/>
</linearGradient>
<linearGradient id="paint8_linear_12_1000" x1="338.1" y1="39" x2="534.468" y2="85.9661" gradientUnits="userSpaceOnUse">
<stop stop-color="white" stop-opacity="0.2"/>
<stop offset="0.5" stop-color="#CFE4FA" stop-opacity="0.2"/>
<stop offset="1" stop-color="white" stop-opacity="0.2"/>
</linearGradient>
<linearGradient id="paint9_linear_12_1000" x1="351.075" y1="63" x2="435.292" y2="140.59" gradientUnits="userSpaceOnUse">
<stop stop-color="white" stop-opacity="0.2"/>
<stop offset="0.5" stop-color="#CFE4FA" stop-opacity="0.2"/>
<stop offset="1" stop-color="white" stop-opacity="0.2"/>
</linearGradient>
<linearGradient id="paint10_linear_12_1000" x1="351.075" y1="244.5" x2="435.292" y2="322.09" gradientUnits="userSpaceOnUse">
<stop stop-color="white" stop-opacity="0.2"/>
<stop offset="0.5" stop-color="#CFE4FA" stop-opacity="0.2"/>
<stop offset="1" stop-color="white" stop-opacity="0.2"/>
</linearGradient>
</defs>
</svg>
